<svg xmlns="http://www.w3.org/2000/svg" viewBox="0 0 512 512"><path d="M136 266.01a9.969 9.969 0 00-9.99 9.99 9.964 9.964 0 009.99 9.987 9.965 9.965 0 009.99-9.987c0-5.53-4.452-9.99-9.99-9.99zM90 0H10C4.478 0 0 4.477 0 10v80c0 5.523 4.478 10 10 10s10-4.477 10-10V20h70c5.522 0 10-4.477 10-10S95.522 0 90 0zM502 0h-80c-5.522 0-10 4.477-10 10s4.478 10 10 10h70v70c0 5.523 4.478 10 10 10s10-4.477 10-10V10c0-5.523-4.478-10-10-10zM90 492H20v-70c0-5.523-4.478-10-10-10s-10 4.477-10 10v80c0 5.522 4.478 10 10 10h80c5.522 0 10-4.478 10-10s-4.478-10-10-10zM502 412c-5.522 0-10 4.477-10 10v70h-70c-5.522 0-10 4.478-10 10s4.478 10 10 10h80c5.522 0 10-4.478 10-10v-80c0-5.523-4.478-10-10-10zM273.378 26.882a172.516 172.516 0 00-34.756 0c-5.494.562-9.492 5.472-8.931 10.966.561 5.494 5.47 9.495 10.966 8.93a152.312 152.312 0 0130.686 0c.346.035.689.053 1.029.053 5.065 0 9.41-3.835 9.937-8.983.562-5.494-3.437-10.404-8.931-10.966zM327.491 459.537c-2.15-5.087-8.018-7.467-13.105-5.316C295.896 462.037 276.253 466 256 466c-61.45 0-116.05-36.8-139.101-93.751-2.071-5.12-7.899-7.59-13.021-5.518-5.119 2.072-7.59 7.902-5.518 13.021C123.797 442.596 185.19 486 256 486c22.943 0 45.207-4.495 66.175-13.359 5.087-2.15 7.467-8.018 5.316-13.104zM96 266c-5.522 0-10 4.477-10 10v40c0 5.523 4.478 10 10 10s10-4.477 10-10v-40c0-5.523-4.478-10-10-10zM202.929 44.673c-2.152-5.085-8.018-7.465-13.106-5.313C126.753 66.045 86 127.53 86 196v40c0 5.523 4.478 10 10 10s10-4.477 10-10v-40c0-60.418 35.962-114.673 91.616-138.221 5.086-2.152 7.465-8.02 5.313-13.106zM416 291c-5.522 0-10 4.477-10 10v15c0 44.937-19.898 87.125-54.594 115.746-4.261 3.514-4.865 9.817-1.351 14.078 3.515 4.259 9.816 4.865 14.078 1.35C403.45 414.74 426 366.929 426 316v-15c0-5.523-4.478-10-10-10zM322.176 39.36c-5.088-2.153-10.954.228-13.105 5.314s.228 10.954 5.314 13.105c82.408 34.857 91.486 112.102 91.564 143.694.003 1.023.005 1.814.051 2.521v44.586c0 5.523 4.478 9.96 10 9.96s10-4.517 10-10.04v-45c0-72.815-34.116-134.655-103.824-164.14z"/><path d="M383.355 169.837c-3.428-16.685-10.019-32.326-19.59-46.487-3.093-4.575-9.308-5.778-13.885-2.686-4.575 3.092-5.778 9.309-2.686 13.885 8.098 11.981 13.672 25.207 16.57 39.313.973 4.731 5.137 7.99 9.785 7.99.667 0 1.345-.067 2.023-.207 5.409-1.111 8.895-6.398 7.783-11.808zM328.651 88.235c-51.395-34.748-120.592-28.068-164.53 15.882-36.835 36.825-37.467 71.722-37.975 99.762-.322 18.091 0-9.3-.146 32.121 0 5.523 4.478 10 10 10s10-4.477 10-10v-24.867c.801-30.606-1.067-59.552 32.263-92.873 37.177-37.188 95.714-42.847 139.187-13.456 4.573 3.093 10.791 1.893 13.885-2.684 3.094-4.575 1.892-10.792-2.684-13.885zM331.334 409.879c-3.093-4.576-9.31-5.776-13.886-2.683-18.472 12.489-39.35 18.833-60.448 18.922-56.619.239-111-44.535-111-110.118 0-5.523-4.478-10-10-10s-10 4.477-10 10c0 75.87 62.125 130.009 130.689 130.009 25.723 0 50.639-7.829 71.962-22.245 4.576-3.093 5.777-9.31 2.683-13.885zM376 201c-5.522 0-10 4.477-10 10v105c0 21.996-6.503 43.246-18.805 61.451-3.092 4.576-1.889 10.792 2.687 13.884 4.555 3.079 10.779 1.909 13.884-2.687C378.312 367.124 386 342.002 386 316V211c0-5.523-4.478-10-10-10z"/><path d="M256 386c-38.595 0-70-31.361-70-70V196c0-9.439 1.853-18.592 5.506-27.205 2.156-5.084-.217-10.955-5.301-13.111-5.086-2.157-10.955.218-13.111 5.301C168.387 172.082 166 183.862 166 196v120c0 49.646 40.306 90 90 90 5.522 0 10-4.477 10-10s-4.478-10-10-10zM336.38 322.304c-5.4-1.109-10.695 2.375-11.806 7.786-2.748 13.395-9.354 25.628-19.105 35.378-3.905 3.905-3.905 10.237 0 14.143 3.906 3.905 10.236 3.905 14.143 0 12.526-12.527 21.018-28.261 24.555-45.501 1.109-5.41-2.377-10.696-7.787-11.806zM256 106c-12.123 0-23.903 2.386-35.011 7.092-5.086 2.154-7.462 8.023-5.308 13.109 2.155 5.085 8.024 7.463 13.108 5.307C237.417 127.853 246.571 126 256 126c38.598 0 70 31.402 70 70v90.1c0 5.523 4.478 10 10 10s10-4.477 10-10V196c0-49.626-40.374-90-90-90z"/><path d="M256 146c-27.57 0-50 22.43-50 50v90c0 5.523 4.478 10 10 10s10-4.477 10-10v-90c0-16.542 13.458-30 30-30s30 13.458 30 30c0 5.523 4.478 10 10 10s10-4.477 10-10c0-27.57-22.43-50-50-50zM305.973 305.856c-.074-4.302-.106 2.045.027-49.855 0-5.523-4.478-10-10-10s-9.9 4.477-9.9 10c-.128 49.972-.177 41.298-.024 50.198.186 10.846.162 15.336-2.435 21.464C278.925 338.802 268.075 346 256 346c-12.07 0-22.921-7.199-27.642-18.341a9.999 9.999 0 00-13.109-5.306c-5.085 2.155-7.461 8.024-5.307 13.109C217.804 354.013 235.882 366 256 366c20.125 0 38.204-11.988 46.057-30.538 4.251-10.03 4.117-17.818 3.916-29.606z"/><path d="M256 186c-5.522 0-10 4.477-10 10v120c0 5.523 4.478 10 10 10s10-4.477 10-10V196c0-5.523-4.478-10-10-10z"/></svg>