<svg xmlns="http://www.w3.org/2000/svg" width="39" height="15"><path d="M9.873 14.737h-3.29V9.221c0-1.368-.578-2.042-1.732-2.042-1.047 0-1.56.526-1.56 1.558v6H0V0h3.291v4.99c.428-.422 1.133-.632 2.094-.632 2.992 0 4.488 1.537 4.488 4.631v5.748zm8.697-6.505h-3.419c.214-.948.77-1.41 1.689-1.41.833 0 1.496.483 1.73 1.41m3.463 1.558c0-1.6-.492-2.906-1.475-3.937-.961-1.01-2.244-1.516-3.804-1.516-1.517 0-2.714.484-3.611 1.474-.898.99-1.347 2.273-1.347 3.831l.043.99h6.817c-.235 1.094-.961 1.684-1.88 1.684-.748 0-1.24-.274-1.475-.842h-3.334c.535 2.021 2.052 3.474 4.873 3.474 1.474 0 2.714-.442 3.697-1.327 1.004-.863 1.496-2.147 1.496-3.831m12.116 4.947h-3.761l-2.094-2.695-2.052 2.695H22.46L26.392 9.6l-3.89-5.053h3.783l1.987 2.59 1.988-2.59h3.782L30.174 9.6zm.641-1.663c0-1.095.79-1.916 2.073-1.916 1.282 0 2.051.821 2.051 1.916s-.769 1.895-2.051 1.895c-1.304 0-2.073-.8-2.073-1.895" fill="#141414" fill-rule="evenodd"/></svg>