<svg viewBox="0 0 800 600" xmlns="http://www.w3.org/2000/svg" fill-rule="evenodd" clip-rule="evenodd" stroke-linejoin="round" stroke-miterlimit="1.414"><path fill="none" d="M0 0h800v600H0z"/><clipPath id="a"><path d="M0 0h800v600H0z"/></clipPath><g clip-path="url(#a)"><clipPath id="b"><path d="M0 0h800v600H0z"/></clipPath><g clip-path="url(#b)" fill="#fff" fill-rule="nonzero"><path d="M323.36 255.722c-3.077 16.34-4.687 33.415-4.687 51.096 0 140.987 100.977 244.822 231.485 244.822 81.924 0 169.563-38.103 209.576-135.271H513.006v-96.214h359.136c-4.763 56.207-9.526 93.357-18.1 115.266v-.952c-45.725 127.65-182.902 209.575-303.884 209.575-154.52 0-277.723-96.561-315.613-241.088l88.815-147.234zM493.792-26.811c18.268-3.001 37.097-4.549 56.366-4.549 127.651 0 281.974 65.73 317.221 242.917H764.497C737.823 103.911 634.941 64.854 550.158 64.854c-52.916 0-100.977 16.757-139.421 46.019l83.055-137.684z"/><path d="M-132.333-34.441l235.714 392.679V628.56h92.83V358.238L432.836-34.441H323.624L149.796 256.748-24.032-34.441h-108.301z"/></g></g></svg>